<svg id="Capa_1" enable-background="new 0 0 512 512" height="512" viewBox="0 0 512 512" width="512" xmlns="http://www.w3.org/2000/svg"><path d="m332.667 225.548c-14.338 0-27.961-5.373-38.334-14.536-10.372 9.164-23.994 14.536-38.333 14.536-14.338 0-27.961-5.373-38.333-14.536-10.373 9.163-23.995 14.536-38.333 14.536-7.198 0-14.16-1.311-20.616-3.751 10.483 44 50.119 76.822 97.283 76.822s86.8-32.822 97.283-76.822c-6.457 2.44-13.419 3.751-20.617 3.751z"/><path d="m179.334 195.548c10.588 0 20.329-6.029 24.814-15.358 2.498-5.196 7.753-8.5 13.519-8.5s11.021 3.304 13.519 8.5c4.486 9.33 14.226 15.358 24.815 15.358s20.329-6.028 24.814-15.358c2.498-5.196 7.753-8.5 13.519-8.5 5.765 0 11.021 3.304 13.519 8.5 4.486 9.33 14.227 15.359 24.815 15.359 9.004 0 17.222-4.208 22.311-11.194-6.944-48.407-48.68-85.735-98.978-85.735s-92.034 37.329-98.978 85.736c5.089 6.985 13.307 11.192 22.311 11.192z"/><path d="m437.547 114.538c-15.946-33.427-40.411-61.704-70.748-81.776-32.393-21.433-70.708-32.762-110.799-32.762s-78.406 11.329-110.8 32.762c-30.336 20.071-54.8 48.349-70.747 81.776s-22.533 70.234-19.046 106.442c3.724 38.664 19.025 75.571 44.251 106.732l144.684 178.727c2.848 3.517 7.132 5.561 11.658 5.561s8.811-2.044 11.659-5.562l144.684-178.727c25.225-31.161 40.526-68.068 44.25-106.732 3.487-36.208-3.099-73.015-19.046-106.441zm-181.547 214.081c-71.682 0-130-58.318-130-130 0-4.237.211-8.425.609-12.558.004-.038.006-.076.01-.114 6.392-65.758 61.975-117.328 129.381-117.328 67.381 0 122.947 51.53 129.374 117.25.019.15.026.3.04.451.382 4.05.586 8.151.586 12.299 0 71.682-58.317 130-130 130z"/></svg>